<?xml version="1.0" encoding="iso-8859-1"?>
<!-- Generator: Adobe Illustrator 19.0.0, SVG Export Plug-In . SVG Version: 6.00 Build 0)  -->
<svg version="1.1" id="Capa_1" xmlns="http://www.w3.org/2000/svg" xmlns:xlink="http://www.w3.org/1999/xlink" x="0px" y="0px"
	 viewBox="0 0 512.001 512.001" style="enable-background:new 0 0 512.001 512.001;" xml:space="preserve">
<g>
	<g>
		<path d="M481.341,55.66c-2.266-3.47-6.913-4.445-10.38-2.181c-3.469,2.264-4.445,6.911-2.181,10.38
			c28.085,43.023,28.195,102.475,28.193,103.101c0,0.732,0.034,322.203-0.2,301.692c-66.107-0.127-62.492,0.26-62.492-0.267V281.308
			c0-4.143-3.357-7.5-7.5-7.5s-7.5,3.357-7.5,7.5v187.078c0,5.518,2.952,10.346,7.35,13.028v10.488
			c0,11.083,9.017,20.099,20.099,20.099h37.445c11.082,0,20.098-9.017,20.098-20.099v-10.203c4.59-2.594,7.7-7.512,7.7-13.149
			V166.996C511.986,164.387,511.931,102.522,481.341,55.66z M484.175,497H446.73c-2.765,0-5.1-2.335-5.1-5.1v-8.249h47.643v8.249
			h0.001C489.274,494.665,486.939,497,484.175,497z"/>
	</g>
</g>
<g>
	<g>
		<path d="M470.441,88.247c-8.324-18.198-20.082-33.984-37.142-46.668c-3.326-2.474-8.023-1.78-10.493,1.544
			c-2.472,3.324-1.78,8.022,1.544,10.493c5.197,3.865,8.338,7.204,8.919,7.722c9.382,8.366,17.299,19.519,23.533,33.148
			c1.261,2.756,3.98,4.383,6.825,4.383c1.043,0,2.103-0.219,3.114-0.682C470.508,96.463,472.164,92.013,470.441,88.247z"/>
	</g>
</g>
<g>
	<g>
		<path d="M350.14,83.868c-11.951,0-21.673,9.724-21.673,21.674s9.723,21.673,21.673,21.673s21.674-9.723,21.674-21.673
			S362.091,83.868,350.14,83.868z M350.139,112.216c-3.68,0-6.674-2.994-6.674-6.674c0-3.681,2.994-6.675,6.674-6.675
			c3.681,0,6.675,2.994,6.675,6.675C356.814,109.222,353.82,112.216,350.139,112.216z"/>
	</g>
</g>
<g>
	<g>
		<path d="M483.825,161.03c-0.09-0.48-0.24-0.95-0.43-1.4c-0.18-0.45-0.42-0.89-0.69-1.29c-0.27-0.42-0.58-0.8-0.93-1.14
			c-0.34-0.351-0.73-0.66-1.14-0.94c-0.4-0.27-0.841-0.5-1.29-0.689c-0.46-0.181-0.931-0.33-1.41-0.431
			c-0.96-0.189-1.96-0.189-2.93,0c-0.471,0.101-0.95,0.25-1.4,0.431c-0.45,0.189-0.89,0.42-1.29,0.689
			c-0.42,0.28-0.8,0.59-1.14,0.94c-0.351,0.34-0.66,0.72-0.94,1.14c-0.27,0.4-0.5,0.84-0.69,1.29c-0.18,0.45-0.329,0.92-0.42,1.4
			c-0.1,0.49-0.149,0.98-0.149,1.47s0.05,0.98,0.149,1.46c0.091,0.48,0.24,0.95,0.42,1.41c0.19,0.45,0.421,0.89,0.69,1.29
			c0.28,0.41,0.59,0.8,0.94,1.14c0.34,0.351,0.72,0.66,1.14,0.931c0.4,0.27,0.84,0.51,1.29,0.689c0.45,0.191,0.93,0.34,1.4,0.43
			c0.489,0.101,0.979,0.15,1.47,0.15c0.49,0,0.979-0.05,1.46-0.15c0.479-0.09,0.95-0.239,1.41-0.43c0.449-0.18,0.89-0.42,1.29-0.689
			c0.409-0.271,0.8-0.58,1.14-0.931c0.35-0.34,0.66-0.729,0.93-1.14c0.271-0.4,0.511-0.84,0.69-1.29c0.189-0.46,0.34-0.93,0.43-1.41
			c0.101-0.479,0.15-0.97,0.15-1.46S483.925,161.52,483.825,161.03z"/>
	</g>
</g>
<g>
	<g>
		<path d="M478.953,442.868h-26.999c-4.143,0-7.5,3.357-7.5,7.5s3.357,7.5,7.5,7.5h26.999c4.143,0,7.5-3.357,7.5-7.5
			S483.095,442.868,478.953,442.868z"/>
	</g>
</g>
<g>
	<g>
		<path d="M89.194,43.123c-2.472-3.326-7.172-4.018-10.493-1.544c-3.574,2.657-6.976,5.585-10.111,8.706
			c-10.87,9.737-19.964,22.509-27.032,37.962c-1.723,3.767-0.066,8.217,3.701,9.939c1.011,0.464,2.071,0.682,3.114,0.682
			c2.845,0,5.565-1.627,6.825-4.383c6.234-13.629,14.151-24.782,23.533-33.148c0.106-0.095,0.21-0.192,0.312-0.293
			c2.663-2.663,5.56-5.162,8.607-7.429C90.974,51.144,91.666,46.447,89.194,43.123z"/>
	</g>
</g>
<g>
	<g>
		<path d="M161.86,83.868c-11.951,0-21.674,9.724-21.674,21.674s9.724,21.673,21.674,21.673c11.951,0,21.673-9.723,21.673-21.673
			S173.811,83.868,161.86,83.868z M161.861,112.216c-3.681,0-6.675-2.994-6.675-6.674c0-3.681,2.994-6.675,6.675-6.675
			c3.68,0,6.674,2.994,6.674,6.675C168.535,109.222,165.541,112.216,161.861,112.216z"/>
	</g>
</g>
<g>
	<g>
		<path d="M40.826,157.2c-0.341-0.35-0.732-0.66-1.142-0.94c-0.399-0.27-0.84-0.5-1.29-0.689c-0.449-0.181-0.93-0.33-1.399-0.431
			c-0.97-0.189-1.97-0.189-2.94,0c-0.47,0.101-0.95,0.25-1.399,0.431c-0.45,0.189-0.891,0.42-1.29,0.689
			c-0.41,0.28-0.8,0.59-1.141,0.94c-1.399,1.39-2.199,3.32-2.199,5.3c0,0.49,0.05,0.98,0.149,1.46c0.09,0.48,0.24,0.96,0.43,1.41
			c0.181,0.45,0.41,0.89,0.681,1.29c0.28,0.41,0.59,0.8,0.94,1.14c0.341,0.351,0.73,0.66,1.141,0.931
			c0.399,0.27,0.84,0.51,1.29,0.689c0.449,0.191,0.93,0.33,1.399,0.43c0.49,0.101,0.98,0.15,1.471,0.15
			c0.489,0,0.979-0.05,1.47-0.15c0.47-0.1,0.95-0.239,1.399-0.43c0.45-0.18,0.891-0.42,1.29-0.689
			c0.41-0.271,0.801-0.58,1.141-0.931c0.35-0.34,0.66-0.729,0.939-1.14c0.271-0.4,0.5-0.84,0.69-1.29c0.18-0.45,0.33-0.93,0.42-1.41
			c0.1-0.479,0.15-0.97,0.15-1.46C43.026,160.53,42.225,158.59,40.826,157.2z"/>
	</g>
</g>
<g>
	<g>
		<path d="M60.047,442.868H33.048c-4.143,0-7.5,3.357-7.5,7.5s3.357,7.5,7.5,7.5h26.999c4.143,0,7.5-3.357,7.5-7.5
			S64.189,442.868,60.047,442.868z"/>
	</g>
</g>
<g>
	<g>
		<path d="M462.988,33.514c-0.684-0.646-1.375-1.285-2.077-1.914C417.909-11.219,348.63-9.782,302.012,31.416
			c-16.904,14.939-25.332,29.873-26.188,31.435c-2.546,3.552-4.051,7.899-4.051,12.593v60.193c0,4.695,1.505,9.042,4.052,12.594
			c0.86,1.569,9.288,16.498,26.187,31.434c35.787,31.627,83.195,38.421,117.27,24.518v50.125h0c0,4.143,3.357,7.5,7.5,7.5
			s7.5-3.357,7.5-7.5v-62.099c0-28.152-20.715-45.093-27.325-33.404c-2.04,3.605-0.772,8.182,2.834,10.221
			c6.024,3.409,8.406,12.607,9.175,18.845c-33.3,16.531-84.211,8.972-118.957-31.577c8.753-2.787,15.111-10.992,15.111-20.655
			v-0.396c0-6.322,0-53.47,0-59.798c0-9.664-6.359-17.867-15.111-20.654c39.448-46.05,108.289-54.596,150.448-12.433
			c0.026,0.025,1.42,1.294,2.234,2.063c3.011,2.842,7.758,2.708,10.603-0.304C466.136,41.105,466,36.358,462.988,33.514z
			 M300.12,75.841v59.401c0,5.57-5.71,8.84-10.181,6.064c-4.967-3.101-2.644-4.952-3.168-65.862c0-3.913,3.392-7.005,7.3-6.642
			C297.521,69.119,300.12,72.23,300.12,75.841z"/>
	</g>
</g>
<g>
	<g>
		<path d="M236.172,62.845c-0.871-1.588-9.299-16.505-26.185-31.429C163.617-9.565,94.265-11.412,51.09,31.6
			C0.173,77.18,0.009,163.348,0.027,166.96v208.926c0,4.143,3.358,7.5,7.5,7.5c4.143,0,7.5-3.357,7.5-7.5V166.923
			c-0.004-0.827,0.127-83.183,46.206-124.272c0.108-0.095,0.211-0.193,0.313-0.294C99.599,4.299,168.273,3.767,211.992,54.79
			c-8.753,2.787-15.111,10.992-15.111,20.654v0.396c0,6.404,0,53.482,0,59.797c0,9.664,6.359,17.868,15.111,20.655
			c-34.777,40.573-85.683,48.097-118.961,31.575c0.774-6.155,3.17-15.443,9.179-18.843c3.605-2.039,4.874-6.615,2.834-10.221
			c-2.04-3.605-6.615-4.874-10.221-2.834c-12.004,6.793-17.105,23.251-17.105,36.237c-0.125,288.323,0.262,276.443-0.267,276.443
			c-7.136,0-55.368,0-62.321,0c-0.206,0-0.055,2.647-0.104-65.767c0-4.143-3.357-7.5-7.5-7.5c-4.142,0-7.5,3.357-7.5,7.5v65.664
			c0,5.638,3.11,10.556,7.7,13.149v10.202c0,11.083,9.017,20.099,20.098,20.099h37.445c11.083,0,20.099-9.017,20.099-20.099v-10.488
			c4.398-2.683,7.35-7.511,7.35-13.028V204.185c34.066,13.9,81.476,7.117,117.269-24.518c16.881-14.919,25.309-29.833,26.184-31.428
			c2.549-3.554,4.056-7.904,4.056-12.601V75.444C240.227,70.748,238.72,66.399,236.172,62.845z M70.369,491.901
			c0,2.765-2.335,5.1-5.1,5.1H27.824c-2.764,0-5.099-2.335-5.099-5.1v-8.249h47.644V491.901z M222.652,140.896
			c-0.154,0.12-0.365,0.27-0.597,0.414c-0.178,0.11-0.296,0.188-0.681,0.369c-0.103,0.048-0.333,0.178-0.876,0.343
			c-0.084,0.026-0.522,0.137-0.734,0.175c-0.128,0.024-0.469,0.073-0.763,0.093c-0.252,0.017-0.43,0.022-0.774,0.006
			c-0.335-0.016-0.187,0-0.531-0.045c-0.29-0.037-0.534-0.075-0.966-0.198c-2.804-0.832-4.851-3.594-4.851-6.811v-59.4
			c0-4.511,3.942-8.005,8.373-6.843c2.922,0.77,4.975,3.426,4.975,6.446C224.684,138.682,226.808,137.625,222.652,140.896z"/>
	</g>
</g>
<g>
</g>
<g>
</g>
<g>
</g>
<g>
</g>
<g>
</g>
<g>
</g>
<g>
</g>
<g>
</g>
<g>
</g>
<g>
</g>
<g>
</g>
<g>
</g>
<g>
</g>
<g>
</g>
<g>
</g>
</svg>
