<svg height="512pt" viewBox="0 -22 512.00002 512" width="512pt" xmlns="http://www.w3.org/2000/svg"><path d="m463.285156 0h-337.054687c-4.199219 0-7.605469 3.40625-7.605469 7.605469s3.40625 7.601562 7.605469 7.601562h337.054687c18.476563 0 33.507813 15.03125 33.507813 33.503907v270.589843c0 18.476563-15.03125 33.503907-33.507813 33.503907h-414.574218c-18.472657 0-33.503907-15.027344-33.503907-33.503907v-270.589843c0-18.472657 15.03125-33.503907 33.503907-33.503907h47.101562c4.199219 0 7.605469-3.402343 7.605469-7.601562s-3.40625-7.605469-7.605469-7.605469h-47.101562c-26.859376 0-48.710938 21.851562-48.710938 48.710938v270.589843c0 26.859375 21.851562 48.710938 48.710938 48.710938h122.273437l-14.894531 48.667969h-27.921875c-14.257813 0-25.851563 11.597656-25.851563 25.851562 0 14.257812 11.59375 25.851562 25.851563 25.851562h255.664062c14.253907 0 25.851563-11.59375 25.851563-25.851562 0-14.253906-11.597656-25.851562-25.851563-25.851562h-27.921875l-14.894531-48.667969h122.269531c26.863282 0 48.714844-21.851563 48.714844-48.710938v-270.589843c0-26.859376-21.851562-48.710938-48.714844-48.710938zm-68.808594 442.535156c0 5.867188-4.777343 10.644532-10.644531 10.644532h-255.664062c-5.871094 0-10.644531-4.777344-10.644531-10.644532 0-5.871094 4.773437-10.644531 10.644531-10.644531h255.664062c5.867188 0 10.644531 4.773437 10.644531 10.644531zm-54.472656-25.855468h-168.007812l14.890625-48.664063h138.226562zm0 0"/><path d="m463.84375 247.53125c4.203125 0 7.605469-3.40625 7.605469-7.605469v-191.210937c0-4.503906-3.660157-8.164063-8.164063-8.164063h-414.578125c-4.492187 0-8.148437 3.660157-8.148437 8.164063v247.828125c0 4.199219 3.402344 7.601562 7.601562 7.601562h415.683594c4.203125 0 7.605469-3.402343 7.605469-7.601562v-26.199219c0-4.199219-3.402344-7.601562-7.605469-7.601562-4.199219 0-7.601562 3.402343-7.601562 7.601562v18.59375h-400.476563v-233.179688h400.476563v184.167969c0 4.203125 3.402343 7.605469 7.601562 7.605469zm0 0"/><path d="m262.320312 322.894531c-1.664062-2.53125-4.84375-3.828125-7.808593-3.234375-3.242188.648438-5.761719 3.421875-6.074219 6.71875-.65625 6.875 7.84375 11.011719 12.832031 6.222656 2.632813-2.53125 3.054688-6.667968 1.050781-9.707031zm0 0"/></svg>