<svg height="512" viewBox="0 0 512 512" width="512" xmlns="http://www.w3.org/2000/svg"><g id="Outline"><path d="m488 272h-8v-56a8 8 0 0 0 -8-8v-160a32.036 32.036 0 0 0 -32-32 64.072 64.072 0 0 0 -64 64v111h16v-111a48.055 48.055 0 0 1 48-48 16.016 16.016 0 0 1 15.567 12.365c-1.593 6.974-7.441 15.011-15.988 21.849-9.838 7.871-21.85 12.994-32.13 13.7l1.1 15.963c13.605-.941 28.557-7.2 41.023-17.173a79.963 79.963 0 0 0 6.428-5.723v135.019h-80a8 8 0 0 0 -8 8v56h-8a8 8 0 0 0 -8 8v208a8 8 0 0 0 8 8h128a8 8 0 0 0 8-8v-208a8 8 0 0 0 -8-8zm-104-48h80v48h-80zm96 256h-112v-192h112z"/><path d="m384 312h16v16h-16z"/><path d="m384 344h16v112h-16z"/><path d="m176 112c-88.224 0-160 71.775-160 160a159.169 159.169 0 0 0 27.492 89.7l13.241-8.98a143.247 143.247 0 0 1 -24.733-80.72c0-79.4 64.6-144 144-144s144 64.6 144 144a144.392 144.392 0 0 1 -44.415 104h-24.928a127.979 127.979 0 1 0 -149.314 0h-41.343a27.991 27.991 0 0 0 -25.293 40h-10.707a8 8 0 0 0 -8 8v40a32.036 32.036 0 0 0 32 32h256a32.036 32.036 0 0 0 32-32v-40a8 8 0 0 0 -8-8h-10.707a27.984 27.984 0 0 0 -20.149-39.518 160.471 160.471 0 0 0 38.856-104.482c0-88.225-71.776-160-160-160zm-91.878 224.066a112.007 112.007 0 1 1 133.478 39.934h-83.2a111.813 111.813 0 0 1 -50.278-39.934zm235.878 127.934a16.019 16.019 0 0 1 -16 16h-256a16.019 16.019 0 0 1 -16-16v-32h81.754l6.485 25.94a8 8 0 0 0 7.761 6.06h96a8 8 0 0 0 7.761-6.06l6.485-25.94h81.754zm-189.754-32h91.508l-4 16h-83.508zm173.754-28a12.013 12.013 0 0 1 -12 12h-232a12 12 0 0 1 0-24h232a12.013 12.013 0 0 1 12 12z"/><path d="m119.431 264h113.137v16h-113.137z" transform="matrix(.707 -.707 .707 .707 -140.784 204.118)"/><path d="m110.059 248h67.882v16h-67.882z" transform="matrix(.707 -.707 .707 .707 -138.843 176.804)"/><path d="m174.059 280h67.882v16h-67.882z" transform="matrix(.707 -.707 .707 .707 -142.723 231.416)"/></g></svg>