<svg id="Capa_1" enable-background="new 0 0 511.672 511.672" height="512" viewBox="0 0 511.672 511.672" width="512" xmlns="http://www.w3.org/2000/svg"><path d="m295.816 134.039c1.839 3.712 6.34 5.233 10.05 3.392 3.712-1.839 5.23-6.338 3.392-10.05-14.665-29.603-37.814-52.167-66.946-65.254-35.719-16.046-76.165-15.846-113.888.564-37.479 16.304-67.723 46.659-85.161 85.477s-20.045 81.589-7.341 120.436c12.787 39.101 39.499 69.471 75.217 85.517 17.625 7.917 36.315 11.896 55.364 11.896 13.735 0 27.656-2.069 41.496-6.223 4.628-1.389 9.196-3.015 13.692-4.853.144-.057.29-.108.43-.174 5.759-2.374 11.394-5.108 16.871-8.175.375-.169.731-.376 1.075-.605 19.071-10.875 36.186-25.811 49.859-43.776 2.509-3.296 1.871-8.001-1.425-10.51-3.297-2.51-8.001-1.872-10.51 1.426-.912 1.199-1.843 2.375-2.783 3.539l-21.488-9.653c-.085-2.779-1.71-5.402-4.416-6.619s-5.747-.688-7.881 1.095l-2.437-1.095c-3.778-1.699-8.217-.01-9.915 3.769s-.01 8.217 3.768 9.915l1.744.784-13.486 30.019-30.019-13.486 13.883-30.903c1.697-3.778.01-8.217-3.768-9.915-3.777-1.699-8.218-.011-9.915 3.769l-13.883 30.902-30.02-13.486 13.486-30.019 16.513 7.418c.998.448 2.042.66 3.069.66 2.863 0 5.597-1.648 6.846-4.429 1.697-3.778.01-8.217-3.768-9.915l-16.512-7.418 5.661-12.601c1.697-3.778.01-8.217-3.768-9.915-3.779-1.698-8.218-.01-9.915 3.769l-5.661 12.601-30.02-13.486 13.485-30.019 25.995 11.678c.998.448 2.042.66 3.069.66 2.863 0 5.597-1.648 6.846-4.429 1.697-3.778.01-8.217-3.768-9.915l-25.994-11.677 13.486-30.019 32.503 14.602c.998.448 2.042.66 3.069.66 2.863 0 5.597-1.648 6.846-4.429.068-.151.122-.306.179-.459.133.007.267.021.4.021 2.863 0 5.597-1.648 6.846-4.429l13.493-30.036 30.02 13.486-.601 1.337c-1.697 3.778-.01 8.217 3.768 9.915.998.448 2.042.66 3.069.66 2.863 0 5.597-1.648 6.846-4.429l.601-1.337 1.889.849c.998.448 2.042.66 3.069.66 2.863 0 5.597-1.648 6.846-4.429 1.697-3.778.01-8.217-3.768-9.915l-1.888-.848 11.551-25.713c5.588 7.043 10.501 14.786 14.653 23.167zm-157.316-56.353 1.601-3.564c13.161-5.058 26.614-7.953 39.978-8.681l-11.559 25.73zm23.873 27.169-13.486 30.02-30.02-13.486 13.486-30.02zm34.061-39.215c11.187.887 22.193 3.327 32.791 7.318l-17.002 37.847-30.02-13.486zm-78.473 19.264.71.319-13.486 30.02-16.485-7.407c8.793-8.869 18.613-16.573 29.261-22.932zm-7.418 252.239c-10.022-5.272-19.156-11.881-27.249-19.655l14.231-31.678 30.02 13.486zm-38.259-31.748c-8.331-10.474-15.102-22.454-20.061-35.653l1.601-3.563 30.019 13.486zm-12.314-52.9 13.485-30.019 30.02 13.486-13.485 30.019zm-13.682-6.147-.71-.319c-2.318-12.184-3.08-24.642-2.29-37.105l16.485 7.405zm-1.19-53.056c1.814-10.831 4.791-21.578 8.933-32.063l25.375 11.399-13.486 30.018zm15.08-45.747c5.087-10.061 11.146-19.425 18.038-27.974l20.823 9.354-13.486 30.02zm188.087 153.462 16.459 7.394c-8.938 9.038-18.755 16.726-29.159 22.979l-.786-.354zm-33.315 37.555-1.653 3.68c-12.944 4.945-26.408 7.847-39.924 8.562l11.558-25.728zm-43.702-19.632-14.224 31.663c-11.117-.882-22.137-3.294-32.798-7.303l17.002-37.846zm-24.07-63.335-13.486 30.019-30.02-13.486 13.486-30.019zm-37.556-33.316-30.02-13.486 13.485-30.019 30.02 13.486zm19.633-43.703-30.02-13.485 13.486-30.019 30.02 13.486zm63.335-24.069-30.02-13.486 13.486-30.02 30.02 13.486zm33.315-37.556 16.995-37.83c10.013 5.265 19.148 11.854 27.251 19.648l-14.226 31.668z"/><path d="m78.803 368.398-9.628 21.433c-1.697 3.778-.01 8.217 3.768 9.915.998.448 2.042.66 3.069.66 2.863 0 5.597-1.648 6.846-4.429l12.34-27.47c1.574-3.504.246-7.632-3.077-9.561-34.032-19.749-59.048-52.534-70.439-92.317-11.519-40.229-8.066-84.19 9.723-123.788 18.987-42.266 52.009-75.155 92.982-92.61 40.767-17.366 84.539-17.354 123.252.039 32.642 14.663 58.32 40.008 74.259 73.293 1.789 3.736 6.268 5.313 10.004 3.525 3.736-1.789 5.314-6.268 3.525-10.004-17.491-36.526-45.722-64.361-81.642-80.498-42.574-19.125-90.616-19.182-135.278-.155-44.454 18.937-80.247 54.546-100.785 100.264-19.238 42.823-22.953 90.435-10.461 134.063 11.812 41.253 37.093 75.677 71.542 97.64z"/><path d="m315.118 302.201c-3.396-2.37-8.071-1.54-10.443 1.855-21.132 30.265-49.991 52.763-83.457 65.062-33.548 12.328-68.493 13.167-101.058 2.426-3.647-1.203-7.617.544-9.191 4.049l-44.419 98.877h-18.954l22.965-51.122c1.697-3.778.01-8.217-3.768-9.915-3.779-1.697-8.217-.01-9.915 3.769l-27.715 61.695c-1.042 2.32-.837 5.012.544 7.147 1.382 2.136 3.753 3.426 6.297 3.426h35.398c2.953 0 5.631-1.733 6.841-4.427l43.694-97.265c33.937 9.671 69.903 8.117 104.454-4.582 36.361-13.363 67.684-37.76 90.582-70.553 2.372-3.396 1.541-8.071-1.855-10.442z"/><path d="m503.351 254.037c.278.03.555.046.829.046 3.775 0 7.024-2.843 7.446-6.682.453-4.117-2.518-7.822-6.636-8.274-32.85-3.61-66-5.961-98.741-7.011 1.857-4.451 2.852-9.274 2.852-14.234 0-5.364-1.161-10.568-3.322-15.313 32.221-1.038 69.07-3.437 99.153-6.504 4.121-.42 7.121-4.101 6.701-8.222s-4.1-7.113-8.222-6.7c-32.607 3.324-73.236 5.852-107.091 6.687 7.166-5.327 11.922-13.57 12.673-22.824 32.595-2.043 65.171-6.951 96.938-14.614 4.026-.972 6.503-5.023 5.532-9.05-.972-4.026-5.024-6.504-9.05-5.532-31.395 7.573-63.6 12.379-95.812 14.313-2.341-5.549-6.241-10.401-11.378-13.887-8.69-5.896-19.705-7.1-29.462-3.22l-103.161 41.015h-28.956c-24.18 0-43.852 19.672-43.852 43.852v.001c0 24.18 19.672 43.852 43.852 43.852h28.956l103.161 41.016c3.781 1.503 7.748 2.242 11.697 2.242 6.245 0 12.442-1.852 17.765-5.464 5.137-3.485 9.037-8.337 11.378-13.887 32.198 1.932 64.406 6.721 95.82 14.262.588.142 1.177.209 1.757.209 3.388 0 6.461-2.313 7.287-5.751.967-4.028-1.515-8.077-5.542-9.044-31.781-7.628-64.354-12.517-96.93-14.559-.799-9.839-6.124-18.539-14.061-23.801.057-.045.114-.091.17-.136 35.805.835 72.207 3.253 108.249 7.214zm-132.05-107.082c5.208-2.072 10.858-1.455 15.498 1.693 4.64 3.147 7.301 8.169 7.301 13.776 0 8.031-5.733 14.917-13.631 16.372l-14.967 2.758c-.01.001-.019.002-.029.004-.005.001-.01.003-.016.004l-9.322 1.718c-4.073.751-6.767 4.662-6.017 8.735.751 4.074 4.663 6.759 8.735 6.017l9.372-1.727c6.412-1.172 12.962.547 17.974 4.719 5.021 4.181 7.9 10.324 7.9 16.857 0 6.532-2.879 12.677-7.9 16.856-5.021 4.181-11.583 5.898-18.009 4.713-.002 0-.004 0-.006-.001l-96.651-17.81v-7.517l57.81-10.653c4.073-.751 6.767-4.662 6.017-8.735s-4.656-6.756-8.735-6.017l-55.091 10.152v-12.252zm-114.766 60.925v20.006 18.849h-20.78v-57.704h20.78zm-51.745 10.002c0-11.279 6.509-21.061 15.965-25.802v51.605c-9.456-4.742-15.965-14.524-15.965-25.803zm182.009 69.235c-4.64 3.147-10.289 3.767-15.498 1.694l-99.766-39.665v-12.251l108.934 20.073c7.898 1.455 13.631 8.341 13.631 16.372 0 5.608-2.661 10.628-7.301 13.777z"/></svg>