<svg height="512pt" viewBox="0 0 512 512.00001" width="512pt" xmlns="http://www.w3.org/2000/svg"><path d="m51.199219 494.933594h-17.066407c-4.710937 0-8.53125 3.820312-8.53125 8.53125 0 4.714844 3.820313 8.535156 8.53125 8.535156h17.066407c4.714843 0 8.535156-3.820312 8.535156-8.535156 0-4.710938-3.820313-8.53125-8.535156-8.53125zm0 0"/><path d="m486.398438 494.933594h-25.597657c-4.714843 0-8.535156 3.820312-8.535156 8.53125 0 4.714844 3.820313 8.535156 8.535156 8.535156h25.597657c4.714843 0 8.535156-3.820312 8.535156-8.535156 0-4.710938-3.820313-8.53125-8.535156-8.53125zm0 0"/><path d="m511.726562 174.320312c-2.359374-35.507812-30.167968-64.042968-65.605468-67.308593-35.433594-3.269531-67.992188 19.695312-76.808594 54.175781-19.0625-10.402344-40.398438-15.9375-62.113281-16.121094h-54.269531c2.023437-8.382812 3.054687-16.976562 3.070312-25.601562-.097656-60.082032-47.988281-109.175782-108.050781-110.769532-8.414063-5.675781-18.332031-8.7031245-28.484375-8.695312-4.710938 0-8.53125 3.820312-8.53125 8.535156v34.132813h-51.199219c-32.976563.035156-59.6953125 26.757812-59.734375 59.730469.0390625 32.976562 26.757812 59.699218 59.734375 59.734374h51.199219v93.867188c.066406 5.964844.84375 11.898438 2.3125 17.679688l-67.046875 67.066406c-8.78125 8.589844-12.273438 21.238281-9.136719 33.113281 3.136719 11.878906 12.414062 21.15625 24.296875 24.292969 11.878906 3.132812 24.523437-.359375 33.113281-9.144532l56.320313-56.320312c10.875 5.6875 22.964843 8.652344 35.234375 8.644531h42.664062l40.40625 17.066407h-85.632812c-6.292969-.003907-11.660156 4.566406-12.652344 10.785156-.992188 6.214844 2.683594 12.230468 8.667969 14.183594l83.535156 26.234374h-78.261719c-5.640625 0-10.613281 3.691407-12.25 9.089844-1.632812 5.398438.460938 11.230469 5.152344 14.359375.246094.160157.496094.304688.75.441407l51.703125 27.308593h-59.441406c-20.269531.023438-37.730469 14.28125-41.816407 34.132813h-43.519531c-4.710937 0-8.53125 3.820312-8.53125 8.53125 0 4.714844 3.820313 8.535156 8.53125 8.535156h341.335938c4.710937 0 8.53125-3.820312 8.53125-8.535156 0-4.710938-3.820313-8.53125-8.53125-8.53125h-60.589844c-4.082031-19.851563-21.542969-34.109375-41.8125-34.132813h-57.617187l-64.628907-34.132812h88.804688c6.292969 0 11.65625-4.570313 12.648437-10.789063.988282-6.214844-2.6875-12.226562-8.671875-14.179687l-83.523437-26.234375h78.855468c5.9375.003906 11.09375-4.078125 12.460938-9.855469 1.367188-5.96875-1.652344-12.078125-7.230469-14.617187l-22.851562-9.660157h52.695312.195313c8.53125 14.125 21.691406 24.855469 37.238281 30.378907 8.816406 3.148437 18.210937 4.355468 27.539063 3.535156 6.269531-.566406 12.433593-2 18.3125-4.269532 2.863281-1.109374 5.652343-2.414062 8.34375-3.898437.488281-.28125.988281-.5625 1.476562-.851563l24.859375 24.855469c6.390625 6.398438 15.066406 9.992188 24.113281 9.984375 13.789063-.015625 26.214844-8.328125 31.492188-21.070312 5.277344-12.742188 2.371094-27.40625-7.367188-37.167969l-39.144531-39.144531v-5.015625c-.296875-36.035157-12.988281-70.867188-35.941406-98.648438 9.574219-18.039062 28.320312-29.328125 48.742187-29.351562 11.625-.039063 22.957032 3.636719 32.339844 10.496093 2.496094 2.3125 6.128906 2.921876 9.246094 1.550782 3.113281-1.371094 5.113281-4.464844 5.089844-7.867188 0-.1875-.117188-.347656-.125-.539062zm-163.320312 320.613282h-201.878906c3.628906-10.21875 13.292968-17.054688 24.140625-17.066406h153.597656c10.847656.011718 20.511719 6.847656 24.140625 17.066406zm-126.539062-332.800782h76.800781v55.46875c0 21.207032-17.195313 38.398438-38.402344 38.398438s-38.398437-17.191406-38.398437-38.398438zm17.066406-42.667968c-.003906 8.664062-1.222656 17.28125-3.625 25.601562h-13.441406c.078124-27.175781-10.714844-53.257812-29.976563-72.429687-6.425781-6.355469-13.65625-11.839844-21.503906-16.316407.152343-1.707031.28125-3.371093.28125-5.121093-.003907-8.160157-1.96875-16.199219-5.734375-23.441407 43.144531 9.398438 73.933594 47.554688 74 91.707032zm-221.867188-17.066406c.003906-17.664063 10.921875-33.488282 27.433594-39.765626 9.839844 10.90625 15.269531 25.082032 15.234375 39.765626.042969 14.675781-5.375 28.839843-15.199219 39.742187-16.496094-6.289063-27.414062-22.085937-27.46875-39.742187zm41.199219 274.542968c-6.664063-6.664062-6.664063-17.464844 0-24.128906l4.691406-4.703125 24.144531 24.140625-4.695312 4.691406c-6.753906 6.457032-17.386719 6.457032-24.140625 0zm424.824219-3.574218c-.855469 2.113281-2.125 4.03125-3.738282 5.640624-6.664062 6.65625-17.460937 6.65625-24.125 0l-1.476562-1.476562 24.117188-24.113281 1.476562 1.476562c1.613281 1.601563 2.886719 3.511719 3.738281 5.621094 1.664063 4.121094 1.664063 8.730469 0 12.851563zm-47.890625-66.167969c.011719 2.265625.914062 4.433593 2.507812 6.042969l28.09375 28.089843-24.117187 24.132813-16.210938-16.210938c-2.992187-2.972656-7.707031-3.3125-11.09375-.804687-1.832031 1.367187-3.753906 2.613281-5.75 3.730469-2.003906 1.109374-4.082031 2.074218-6.222656 2.890624-2.160156.84375-4.378906 1.523438-6.640625 2.042969-2.3125.539063-4.664063.914063-7.03125 1.125-6.894531.597657-13.839844-.300781-20.359375-2.636719-13.183594-4.703124-24.058594-14.289062-30.378906-26.777343-3.121094-6.164063-4.867188-12.929688-5.121094-19.832031-.5-13.90625 4.695312-27.417969 14.390625-37.402344 2.257813-2.160156 3.15625-5.382813 2.339844-8.402344-.816407-3.015625-3.21875-5.347656-6.261719-6.070312-3.042969-.722657-6.238281.277343-8.324219 2.601562-12.921875 13.300781-19.851562 31.296875-19.191406 49.828125.160156 4.976563.90625 9.917969 2.226563 14.71875h-132.027344c-7.683594.003906-15.296875-1.492187-22.410156-4.402344l21.335937-21.332031c3.230469-3.347656 3.1875-8.671875-.105469-11.964844-3.292968-3.289062-8.613281-3.335937-11.960937-.101562l-73.753907 73.746094-24.109374-24.167969 73.753906-73.746094c2.21875-2.140625 3.109375-5.316406 2.328125-8.296875-.78125-2.984375-3.109375-5.316406-6.09375-6.09375-2.984375-.78125-6.15625.105469-8.300781 2.324219l-8.53125 8.535156c0-.90625-.207032-1.800781-.207032-2.714844v-94.574219c12.78125-1.757812 24.625-7.671874 33.707032-16.828124 3.332031-3.335938 3.324218-8.742188-.011719-12.070313-3.335938-3.328125-8.742188-3.324219-12.070313.011719-7.984375 8-18.828125 12.488281-30.132812 12.476562h-55.636719c17.292969-25.816406 17.292969-59.515625 0-85.332031h55.636719c4.714844 0 8.535156-3.820313 8.535156-8.535156v-33.039063c15.054688 3.910156 25.570312 17.488282 25.601562 33.039063.027344 2.550781-.257812 5.097656-.855468 7.578125-.058594.257812 0 .511718 0 .777344-.082032.566406-.105469 1.136718-.078125 1.707031.027343.527343.09375 1.050781.207031 1.570312.140625.527344.328125 1.042969.5625 1.535157.21875.488281.480469.953124.785156 1.390624.320313.425782.675782.824219 1.066406 1.1875.414063.394532.863282.75 1.347657 1.058594.230469.136719.375.347656.617187.46875 8.359375 4.152344 15.996094 9.628906 22.613282 16.210938 16.042968 15.988281 25.019531 37.734375 24.933593 60.382812v72.535156c0 30.632813 24.832031 55.464844 55.464844 55.464844s55.46875-24.832031 55.46875-55.464844v-54.957031c64.554687 5.050781 119.464844 66.363281 119.464844 136.039063zm-30.992188-120.320313c-6.027343-5.921875-12.53125-11.34375-19.4375-16.210937 3.851563-24.664063 23.71875-43.703125 48.519531-46.503907 24.804688-2.804687 48.417969 11.324219 57.675782 34.503907-8.242188-3.28125-17.027344-5-25.898438-5.066407-24.628906.015626-47.554687 12.554688-60.859375 33.277344zm0 0"/><path d="m119.464844 93.882812c0 4.714844-3.820313 8.535157-8.53125 8.535157-4.714844 0-8.535156-3.820313-8.535156-8.535157 0-4.710937 3.820312-8.53125 8.535156-8.53125 4.710937 0 8.53125 3.820313 8.53125 8.53125zm0 0"/><path d="m366.933594 315.734375c0 4.710937-3.820313 8.53125-8.535156 8.53125-4.710938 0-8.53125-3.820313-8.53125-8.53125 0-4.714844 3.820312-8.535156 8.53125-8.535156 4.714843 0 8.535156 3.820312 8.535156 8.535156zm0 0"/><path d="m401.066406 298.667969c0 4.710937-3.820312 8.53125-8.53125 8.53125-4.714844 0-8.535156-3.820313-8.535156-8.53125 0-4.714844 3.820312-8.535157 8.535156-8.535157 4.710938 0 8.53125 3.820313 8.53125 8.535157zm0 0"/><path d="m401.066406 332.800781c0 4.710938-3.820312 8.53125-8.53125 8.53125-4.714844 0-8.535156-3.820312-8.535156-8.53125 0-4.714843 3.820312-8.535156 8.535156-8.535156 4.710938 0 8.53125 3.820313 8.53125 8.535156zm0 0"/></svg>