<svg height="496pt" viewBox="0 -24 496 496" width="496pt" xmlns="http://www.w3.org/2000/svg"><path d="m479.160156 308.441406c-4.28125-32.664062-25.921875-59.160156-55.160156-70.488281v-18.722656c0-14.023438-3.816406-27.804688-11.03125-39.839844-10.144531-16.902344-26.167969-29.191406-45.128906-34.613281l-25.007813-7.144532-6.296875-17.632812h5.960938c8.3125 14.320312 23.785156 24 41.503906 24h24v-96h-24c-10.257812 0-19.753906 3.265625-27.558594 8.769531l-14.195312-56.769531h-30.246094c-13.230469 0-24 10.769531-24 24s10.769531 24 24 24h25.753906l5.628906 22.535156c-.304687.488282-.605468.96875-.894531 1.464844h-78.488281c-13.230469 0-24 10.769531-24 24s10.769531 24 24 24h26.359375l5.710937 16h-84.773437l-8.898437 16h-48.453126c-25.992187 0-51.503906-7.070312-73.800781-20.441406-3.871093-2.328125-8.320312-3.558594-12.839843-3.558594h-2.335938c-13.769531 0-24.96875 11.199219-24.96875 24.96875 0 6.671875 2.601562 12.941406 7.3125 17.65625 4.800781 4.800781 9.863281 9.285156 15.078125 13.589844-18.199219 1.007812-36.207031 5.753906-52.511719 13.898437-6.085937 3.054688-9.878906 9.183594-9.878906 16 0 9.863281 8.023438 17.886719 17.886719 17.886719h114.570312l-6 16h-52.570312c-12.222657 0-24.421875 2.816406-35.496094 8h-14.390625c-13.230469 0-24 10.769531-24 24 0 12.03125 8.929688 21.929688 20.496094 23.648438-12.777344 15.28125-20.496094 34.917968-20.496094 56.351562 0 48.519531 39.480469 88 88 88 39.472656 0 74.039062-26.550781 84.640625-64h24.839844c9.007812 18.886719 28.238281 32 50.519531 32 28.152344 0 51.457031-20.902344 55.359375-48h17.039063c4.066406 44.785156 41.777343 80 87.601562 80 48.519531 0 88-39.480469 88-88 0-19.265625-6.296875-37.046875-16.839844-51.558594zm-167.160156-276.441406c-4.40625 0-8-3.59375-8-8s3.59375-8 8-8h17.753906l4 16zm143.550781 254.0625c-13.726562-8.855469-30.03125-14.0625-47.550781-14.0625-2.710938 0-5.425781.160156-8.121094.40625l-10.007812-24.292969c.714844-.023437 1.417968-.113281 2.128906-.113281 27.464844 0 51.414062 15.230469 63.550781 38.0625zm-168.429687 33.9375h16.878906c0 11 2.152344 21.847656 6.113281 32h-6.753906c-1.792969-12.457031-7.648437-23.59375-16.238281-32zm-89.640625 16h-5.480469v-16h16.878906c-4.6875 4.59375-8.542968 10.007812-11.398437 16zm-21.480469-32v32h-3.359375c-2.5625-9.039062-6.542969-17.414062-11.632813-24.96875l12.40625-31.03125h66.585938v-16h-77.414062l-13.210938 33.023438c-5.648438-5.496094-12.039062-10.191407-18.949219-14.015626l20.71875-55.253906c5.566407 1.269532 11.183594 2.300782 16.855469 3.117188v17.128906h162.734375l2.671875 6.488281c-3.34375 2.984375-6.511719 6.121094-9.316406 9.511719h-68.089844v16h57.566406c-3.832031 7.503906-6.453125 15.59375-7.980468 24zm179.167969-80c4.542969 0 8.59375 2.710938 10.328125 6.910156l12.398437 30.113282-21.039062 8.417968-11.910157-28.976562c-.625-1.417969-.945312-2.921875-.945312-4.472656v-.832032c0-6.152344 5.007812-11.160156 11.167969-11.160156zm-32.625 114.9375c-1.671875-6.136719-2.542969-12.503906-2.542969-18.9375 0-18.824219 7.207031-36.3125 19.945312-49.601562l9.789063 23.816406c-13.574219 11.984375-22.992187 27.464844-27.191406 44.722656zm48.234375 6.476562 8.941406 21.753907c4.203125 10.222656 14.066406 16.832031 25.121094 16.832031 14.976562 0 27.160156-12.183594 27.160156-27.160156v-1.046875c0-3.554688-.6875-7.03125-2.039062-10.335938l-9.59375-23.296875c15.976562 5.238282 27.632812 20.128906 27.632812 37.839844 0 22.054688-17.945312 40-40 40s-40-17.945312-40-40c0-5.046875.976562-9.976562 2.777344-14.585938zm44.382812 6.121094c.558594 1.359375.839844 2.792969.839844 4.257813v1.046875c0 6.152344-5.007812 11.160156-11.160156 11.160156-4.542969 0-8.601563-2.710938-10.328125-6.921875l-31.582031-76.832031 21.046874-8.414063zm-51.71875-191.375c15.039063 4.296875 27.757813 14.046875 35.804688 27.464844 5.730468 9.542969 8.753906 20.480469 8.753906 31.605469v14.234375c-5.191406-.945313-10.535156-1.464844-16-1.464844-2.871094 0-5.734375.152344-8.585938.433594l-3.132812-7.609375c-2.234375-5.425781-6.089844-9.777344-10.832031-12.71875l-19.992188-55.9375zm20.558594-96.160156h8v64h-8c-17.648438 0-32-14.351562-32-32s14.351562-32 32-32zm-128 32c0-4.40625 3.59375-8 8-8h72.71875c-.4375 2.609375-.71875 5.273438-.71875 8s.28125 5.390625.71875 8h-72.71875c-4.40625 0-8-3.59375-8-8zm63.542969 24 31.601562 88.40625c-3.929687.59375-7.59375 1.953125-10.785156 4.042969l-33.007813-92.449219zm-98.839844 32h81.082031l27.214844 76.246094c-.320312 1.226562-.535156 2.472656-.679688 3.753906h-144.320312v-13.929688zm-164.703125.96875c0-4.945312 4.023438-8.96875 8.96875-8.96875h2.335938c1.625 0 3.222656.441406 4.617187 1.28125 24.765625 14.863281 53.132813 22.71875 82.023437 22.71875h39.566407l-25.511719 45.929688v.757812c-41.214844-6.449219-79.800781-25.808594-109.375-55.375-1.6875-1.695312-2.625-3.945312-2.625-6.34375zm-40 61.144531c0-.714843.40625-1.378906 1.039062-1.6875 16.257813-8.128906 34.457032-12.425781 52.625-12.425781h14.71875c9.753907 6.152344 19.96875 11.488281 30.578126 16h-97.074219c-1.039063 0-1.886719-.847656-1.886719-1.886719zm104.457031 49.886719-4.722656 12.585938c-8.773437-2.9375-18.09375-4.585938-27.734375-4.585938-14.40625 0-27.984375 3.550781-40 9.710938v-12.453126c8.191406-3.386718 17.023438-5.257812 25.886719-5.257812zm-104.457031 16c0-4.40625 3.59375-8 8-8h8v16h-8c-4.40625 0-8-3.59375-8-8zm72 152c-39.695312 0-72-32.304688-72-72s32.304688-72 72-72c30.734375 0 57.808594 19.695312 67.832031 48h-17.390625c-9.203125-19.304688-28.722656-32-50.441406-32-30.878906 0-56 25.121094-56 56s25.121094 56 56 56c21.71875 0 41.238281-12.695312 50.441406-32h17.390625c-10.023437 28.304688-37.097656 48-67.832031 48zm21.777344-96c-2.777344-4.761719-7.882813-8-13.777344-8-17.648438 0-32 14.351562-32 32s14.351562 32 32 32c5.894531 0 11-3.238281 13.777344-8h10.207031c-7.425781 9.871094-19.191406 16-31.984375 16-22.054688 0-40-17.945312-40-40s17.945312-40 40-40c12.792969 0 24.558594 6.128906 31.984375 16zm-13.769532 40h-.007812c-8.824219 0-16-7.175781-16-16s7.175781-16 16-16zm15.992188-8v-16h80.640625c-.375 2.625-.640625 5.28125-.640625 8s.265625 5.375.640625 8zm136 32c-22.054688 0-40-17.945312-40-40s17.945312-40 40-40 40 17.945312 40 40-17.945312 40-40 40zm160 32c-39.695312 0-72-32.304688-72-72 0-18.976562 7.320312-36.601562 20.246094-49.929688l6.800781 16.539063c-7.152344 9.621094-11.046875 21.292969-11.046875 33.390625 0 30.878906 25.121094 56 56 56s56-25.121094 56-56c0-29.191406-22.464844-53.207031-51.007812-55.742188l-6.65625-16.167968c.550781-.019532 1.105468-.089844 1.664062-.089844 39.695312 0 72 32.304688 72 72s-32.304688 72-72 72zm0 0"/><path d="m224 352h48v16h-48zm0 0"/><path d="m216 176h80v16h-80zm0 0"/></svg>